<svg width="24" height="24" viewBox="0 0 24 24" fill="none" xmlns="http://www.w3.org/2000/svg">
<path d="M12.9004 3.2999C12.9004 2.80285 12.4974 2.3999 12.0004 2.3999C11.5033 2.3999 11.1004 2.80285 11.1004 3.2999V13.6362L7.55471 9.88194C7.21341 9.52058 6.6438 9.5043 6.28243 9.84559C5.92107 10.1869 5.90479 10.7565 6.24608 11.1179L11.3461 16.5179C11.5161 16.6979 11.7528 16.7999 12.0004 16.7999C12.248 16.7999 12.4847 16.6979 12.6547 16.5179L17.7547 11.1179C18.096 10.7565 18.0797 10.1869 17.7184 9.84559C17.357 9.5043 16.7874 9.52058 16.4461 9.88194L12.9004 13.6362V3.2999Z" fill="currentColor"/>
<path d="M4.20039 15.2999C4.20039 14.8028 3.79745 14.3999 3.30039 14.3999C2.80333 14.3999 2.40039 14.8028 2.40039 15.2999V18.2999C2.40039 20.1224 3.87785 21.5999 5.70039 21.5999H18.3004C20.1229 21.5999 21.6004 20.1224 21.6004 18.2999V15.2999C21.6004 14.8028 21.1974 14.3999 20.7004 14.3999C20.2033 14.3999 19.8004 14.8028 19.8004 15.2999V18.2999C19.8004 19.1283 19.1288 19.7999 18.3004 19.7999H5.70039C4.87196 19.7999 4.20039 19.1283 4.20039 18.2999V15.2999Z" fill="currentColor"/>
</svg>
