<svg width="21" height="20" viewBox="0 0 21 20" fill="none" xmlns="http://www.w3.org/2000/svg">
<path d="M8.49461 3.28344C8.56995 2.83139 8.96106 2.50006 9.41935 2.50006H11.581C12.0393 2.50006 12.4304 2.83139 12.5057 3.28344L12.6837 4.35098C12.7356 4.66268 12.9439 4.92232 13.2204 5.07536C13.2822 5.10958 13.3433 5.14492 13.4037 5.18137C13.6745 5.34493 14.004 5.39578 14.3003 5.28478L15.3143 4.90487C15.7435 4.7441 16.226 4.91715 16.4551 5.31404L17.5359 7.18607C17.7651 7.58296 17.6737 8.08734 17.3199 8.37861L16.4829 9.06762C16.2392 9.26829 16.1183 9.57816 16.1242 9.89383C16.1248 9.92916 16.1252 9.96457 16.1252 10.0001C16.1252 10.0355 16.1248 10.0709 16.1242 10.1063C16.1183 10.422 16.2392 10.7318 16.4829 10.9325L17.3199 11.6215C17.6737 11.9128 17.7651 12.4172 17.5359 12.814L16.4551 14.6861C16.226 15.083 15.7435 15.256 15.3143 15.0952L14.3003 14.7153C14.004 14.6043 13.6745 14.6552 13.4037 14.8187C13.3433 14.8552 13.2822 14.8905 13.2204 14.9248C12.9439 15.0778 12.7356 15.3374 12.6837 15.6491L12.5057 16.7167C12.4304 17.1687 12.0393 17.5001 11.581 17.5001H9.41935C8.96106 17.5001 8.56995 17.1687 8.49461 16.7167L8.31668 15.6491C8.26473 15.3374 8.05642 15.0778 7.77995 14.9248C7.71814 14.8905 7.65704 14.8552 7.59668 14.8188C7.32581 14.6552 6.99637 14.6043 6.70007 14.7153L5.68601 15.0952C5.25685 15.256 4.77436 15.083 4.54522 14.6861L3.4644 12.8141C3.23526 12.4172 3.32663 11.9128 3.68045 11.6215L4.51741 10.9325C4.76117 10.7318 4.882 10.422 4.87615 10.1063C4.8755 10.071 4.87517 10.0355 4.87517 10.0001C4.87517 9.96458 4.8755 9.92917 4.87615 9.89385C4.882 9.57817 4.76117 9.2683 4.51741 9.06764L3.68045 8.37862C3.32663 8.08735 3.23525 7.58297 3.4644 7.18608L4.54522 5.31405C4.77436 4.91716 5.25685 4.74411 5.68601 4.90489L6.70006 5.28478C6.99636 5.39579 7.3258 5.34494 7.59667 5.18138C7.65703 5.14493 7.71813 5.10958 7.77995 5.07536C8.05642 4.92232 8.26473 4.66268 8.31668 4.35098L8.49461 3.28344Z" stroke="currentColor" stroke-width="1.5" stroke-linecap="round" stroke-linejoin="round"/>
<path d="M13 9.99999C13 11.3807 11.8807 12.5 10.5 12.5C9.11926 12.5 7.99998 11.3807 7.99998 9.99999C7.99998 8.61928 9.11926 7.49999 10.5 7.49999C11.8807 7.49999 13 8.61928 13 9.99999Z" stroke="currentColor" stroke-width="1.5" stroke-linecap="round" stroke-linejoin="round"/>
</svg>
