<svg width="16" height="16" viewBox="0 0 16 16" fill="none" xmlns="http://www.w3.org/2000/svg">
<path fill-rule="evenodd" clip-rule="evenodd" d="M7.43395 1.83441C7.74637 1.52199 8.2529 1.52199 8.56532 1.83441L14.1653 7.43441C14.3941 7.66321 14.4626 8.0073 14.3387 8.30624C14.2149 8.60518 13.9232 8.8001 13.5996 8.8001H12.7996V13.6001C12.7996 14.0419 12.4415 14.4001 11.9996 14.4001H10.3996C9.9578 14.4001 9.59963 14.0419 9.59963 13.6001V11.2001C9.59963 10.7583 9.24146 10.4001 8.79963 10.4001H7.19963C6.7578 10.4001 6.39963 10.7583 6.39963 11.2001V13.6001C6.39963 14.0419 6.04146 14.4001 5.59963 14.4001H3.99963C3.5578 14.4001 3.19963 14.0419 3.19963 13.6001V8.8001H2.39963C2.07606 8.8001 1.78435 8.60518 1.66053 8.30624C1.5367 8.0073 1.60515 7.66321 1.83395 7.43441L7.43395 1.83441Z" fill="currentColor"/>
</svg>
