<svg width="16" height="16" viewBox="0 0 16 16" fill="none" xmlns="http://www.w3.org/2000/svg">
<path fill-rule="evenodd" clip-rule="evenodd" d="M1.59961 2.8001C1.59961 2.13736 2.13687 1.6001 2.79961 1.6001H3.71831C4.28074 1.6001 4.76772 1.99074 4.88973 2.53978L5.4627 5.11815C5.60045 5.738 5.23148 6.35786 4.62094 6.5323L3.87471 6.74551C3.54609 6.8394 3.36047 7.18942 3.49078 7.50537C4.42362 9.76709 6.23262 11.5761 8.49434 12.5089C8.81029 12.6392 9.16031 12.4536 9.2542 12.125L9.46741 11.3788C9.64185 10.7682 10.2617 10.3993 10.8816 10.537L13.4599 11.11C14.009 11.232 14.3996 11.719 14.3996 12.2814V13.2001C14.3996 13.8628 13.8623 14.4001 13.1996 14.4001H11.9996C11.0808 14.4001 10.1889 14.2808 9.339 14.0565C5.73292 13.1048 2.89487 10.2668 1.9432 6.66071C1.71891 5.81083 1.59961 4.91894 1.59961 4.0001V2.8001Z" fill="currentColor"/>
</svg>
