<svg width="16" height="16" viewBox="0 0 16 16" fill="none" xmlns="http://www.w3.org/2000/svg">
<path d="M8.00039 6.4001C9.32587 6.4001 10.4004 5.32558 10.4004 4.0001C10.4004 2.67461 9.32587 1.6001 8.00039 1.6001C6.67491 1.6001 5.60039 2.67461 5.60039 4.0001C5.60039 5.32558 6.67491 6.4001 8.00039 6.4001Z" fill="currentColor"/>
<path d="M2.77253 11.5949C2.61662 12.0013 2.75587 12.4569 3.09975 12.7238C4.45364 13.7745 6.154 14.4001 8.00048 14.4001C9.84884 14.4001 11.5508 13.7733 12.9054 12.7206C13.2491 12.4534 13.388 11.9978 13.2318 11.5915C12.4244 9.49093 10.3877 8.0001 8.00284 8.0001C5.61664 8.0001 3.57902 9.49256 2.77253 11.5949Z" fill="currentColor"/>
</svg>
