<svg width="14" height="14" viewBox="0 0 14 14" fill="none" xmlns="http://www.w3.org/2000/svg">
<path fill-rule="evenodd" clip-rule="evenodd" d="M12.6004 7.00039C12.6004 10.0932 10.0932 12.6004 7.00039 12.6004C3.9076 12.6004 1.40039 10.0932 1.40039 7.00039C1.40039 3.9076 3.9076 1.40039 7.00039 1.40039C10.0932 1.40039 12.6004 3.9076 12.6004 7.00039ZM8.75039 5.25039C8.75039 6.21689 7.96689 7.00039 7.00039 7.00039C6.03389 7.00039 5.25039 6.21689 5.25039 5.25039C5.25039 4.28389 6.03389 3.50039 7.00039 3.50039C7.96689 3.50039 8.75039 4.28389 8.75039 5.25039ZM7.00039 8.40039C5.62932 8.40039 4.4117 9.05736 3.64514 10.0737C4.47695 10.9813 5.67221 11.5504 7.00039 11.5504C8.32857 11.5504 9.52383 10.9813 10.3556 10.0737C9.58908 9.05736 8.37146 8.40039 7.00039 8.40039Z" fill="currentColor"/>
</svg>
