<svg width="18" height="16" viewBox="0 0 18 16" fill="none" xmlns="http://www.w3.org/2000/svg">
<path fill-rule="evenodd" clip-rule="evenodd" d="M17.7812 7.99981C17.7812 8.49686 17.3783 8.89981 16.8812 8.89981L4.11575 8.89981L9.10505 13.6511C9.46334 13.9956 9.47451 14.5653 9.13 14.9236C8.78549 15.2819 8.21575 15.2931 7.85745 14.9486L1.25745 8.64855C1.08098 8.47887 0.981251 8.24462 0.981251 7.99981C0.981251 7.75499 1.08098 7.52074 1.25745 7.35106L7.85745 1.05106C8.21575 0.706542 8.78549 0.717713 9.13 1.07601C9.47451 1.4343 9.46334 2.00404 9.10505 2.34856L4.11575 7.09981L16.8812 7.09981C17.3783 7.09981 17.7812 7.50275 17.7812 7.99981Z" fill="currentColor"/>
</svg>
