<svg width="21" height="20" viewBox="0 0 21 20" fill="none" xmlns="http://www.w3.org/2000/svg">
<path d="M6.66101 5.21985C6.51884 5.08737 6.33079 5.01524 6.13649 5.01867C5.94219 5.0221 5.7568 5.10081 5.61939 5.23822C5.48198 5.37564 5.40327 5.56102 5.39984 5.75532C5.39641 5.94963 5.46853 6.13767 5.60101 6.27985L9.32101 9.99985L5.60101 13.7198C5.52733 13.7885 5.46822 13.8713 5.42723 13.9633C5.38624 14.0553 5.3642 14.1546 5.36242 14.2553C5.36064 14.356 5.37917 14.4561 5.41689 14.5494C5.45461 14.6428 5.51076 14.7277 5.58197 14.7989C5.65319 14.8701 5.73803 14.9262 5.83142 14.964C5.9248 15.0017 6.02483 15.0202 6.12554 15.0184C6.22624 15.0167 6.32555 14.9946 6.41755 14.9536C6.50955 14.9126 6.59235 14.8535 6.66101 14.7798L10.381 11.0598L14.101 14.7798C14.1697 14.8535 14.2525 14.9126 14.3445 14.9536C14.4365 14.9946 14.5358 15.0167 14.6365 15.0184C14.7372 15.0202 14.8372 15.0017 14.9306 14.964C15.024 14.9262 15.1088 14.8701 15.1801 14.7989C15.2513 14.7277 15.3074 14.6428 15.3451 14.5494C15.3829 14.4561 15.4014 14.356 15.3996 14.2553C15.3978 14.1546 15.3758 14.0553 15.3348 13.9633C15.2938 13.8713 15.2347 13.7885 15.161 13.7198L11.441 9.99985L15.161 6.27985C15.2935 6.13767 15.3656 5.94963 15.3622 5.75532C15.3588 5.56102 15.28 5.37564 15.1426 5.23822C15.0052 5.10081 14.8198 5.0221 14.6255 5.01867C14.4312 5.01524 14.2432 5.08737 14.101 5.21985L10.381 8.93985L6.66101 5.21985Z" fill="currentColor"/>
</svg>
