<svg width="17" height="16" viewBox="0 0 17 16" fill="none" xmlns="http://www.w3.org/2000/svg">
<g clip-path="url(#clip0_17391_14338)">
<path fill-rule="evenodd" clip-rule="evenodd" d="M3.12426 1.77583C2.88995 1.54152 2.51005 1.54152 2.27574 1.77583C2.04142 2.01015 2.04142 2.39005 2.27574 2.62436L13.8757 14.2244C14.11 14.4587 14.4899 14.4587 14.7243 14.2244C14.9586 13.99 14.9586 13.6101 14.7243 13.3758L13.3281 11.9797C14.5051 11.0876 15.4276 9.87728 15.9675 8.47684C16.0852 8.17159 16.0853 7.83311 15.9678 7.5278C14.8136 4.5285 11.9048 2.4001 8.49887 2.4001C7.12566 2.4001 5.83325 2.74609 4.70408 3.35565L3.12426 1.77583ZM6.70155 5.35312L7.57494 6.22651C7.85161 6.08188 8.16633 6.0001 8.50015 6.0001C9.60472 6.0001 10.5001 6.89553 10.5001 8.0001C10.5001 8.33392 10.4184 8.64863 10.2737 8.92531L11.1473 9.79885C11.4963 9.28625 11.7003 8.667 11.7003 8.0001C11.7003 6.23279 10.2676 4.8001 8.5003 4.8001C7.8334 4.8001 7.21415 5.00411 6.70155 5.35312Z" fill="#939FA3"/>
<path d="M9.09871 11.1442L11.1169 13.1624C10.297 13.446 9.41664 13.6001 8.5003 13.6001C5.09438 13.6001 2.18558 11.4717 1.0314 8.4724C0.913913 8.16708 0.914015 7.82861 1.03169 7.52336C1.42483 6.50355 2.02086 5.58456 2.77033 4.81585L5.35616 7.40168C5.31948 7.59554 5.3003 7.79558 5.3003 8.0001C5.3003 9.76741 6.73299 11.2001 8.5003 11.2001C8.70482 11.2001 8.90486 11.1809 9.09871 11.1442Z" fill="#939FA3"/>
</g>
<defs>
<clipPath id="clip0_17391_14338">
<rect width="16" height="16" fill="white" transform="translate(0.5)"/>
</clipPath>
</defs>
</svg>
